<svg width="192" height="192" viewBox="0 0 192 192" fill="none" xmlns="http://www.w3.org/2000/svg">
<g clip-path="url(#clip0_856_37)">
<path d="M192 96C192 42.9797 149.02 0 95.9985 0C42.9801 0 0 42.9797 0 96C0 149.017 42.9801 192 95.9985 192C149.02 192 192 149.017 192 96Z" fill="url(#paint0_linear_856_37)"/>
<path d="M9.59961 95.9996C9.59962 143.719 48.2832 182.4 96.0011 182.4C143.719 182.4 182.399 143.719 182.399 95.9996C182.399 48.2811 143.719 9.5996 96.0011 9.59961C48.2831 9.59961 9.59961 48.2811 9.59961 95.9996Z" fill="url(#paint1_linear_856_37)"/>
<path d="M172.801 96.0002C172.801 53.5839 138.417 19.2002 96 19.2002C53.5853 19.2002 19.2012 53.5839 19.2012 96.0002C19.2012 138.413 53.5853 172.8 96 172.8C138.417 172.8 172.801 138.413 172.801 96.0002Z" fill="#2775CA"/>
<g clip-path="url(#clip1_856_37)">
<path d="M96 173C138.671 173 173 138.671 173 96C173 53.3289 138.671 19 96 19C53.3289 19 19 53.3289 19 96C19 138.671 53.3289 173 96 173Z" fill="#2775CA"/>
<path d="M117.175 108.192C117.175 96.9627 110.438 93.1127 96.9625 91.5088C87.3375 90.2252 85.4125 87.6588 85.4125 83.1666C85.4125 78.6744 88.6211 75.7877 95.0375 75.7877C100.813 75.7877 104.021 77.7127 105.625 82.5252C105.946 83.4877 106.909 84.1291 107.871 84.1291H113.004C114.288 84.1291 115.25 83.1666 115.25 81.8838V81.5627C113.966 74.5041 108.191 69.0502 100.813 68.4088V60.7088C100.813 59.4252 99.85 58.4627 98.2461 58.1416H93.4336C92.15 58.1416 91.1875 59.1041 90.8664 60.7088V68.0877C81.2414 69.3713 75.1461 75.7877 75.1461 83.8088C75.1461 94.3963 81.5625 98.5666 95.0375 100.171C104.021 101.775 106.909 103.7 106.909 108.834C106.909 113.967 102.416 117.496 96.3211 117.496C87.9789 117.496 85.0914 113.967 84.1289 109.154C83.8086 107.871 82.8461 107.229 81.8836 107.229H76.4289C75.1461 107.229 74.1836 108.192 74.1836 109.475V109.796C75.4664 117.817 80.6 123.592 91.1875 125.196V132.896C91.1875 134.179 92.15 135.142 93.7539 135.463H98.5664C99.85 135.463 100.813 134.5 101.134 132.896V125.196C110.759 123.592 117.175 116.854 117.175 108.192Z" fill="white"/>
<path d="M79.6379 141.879C54.6129 132.896 41.7793 104.984 51.084 80.2793C55.8965 66.8043 66.484 56.5379 79.6379 51.7254C80.9215 51.084 81.5629 50.1215 81.5629 48.5168V44.0254C81.5629 42.7418 80.9215 41.7793 79.6379 41.459C79.3168 41.459 78.6754 41.459 78.3543 41.7793C47.8754 51.4043 31.1918 83.809 40.8168 114.288C46.5918 132.254 60.3879 146.05 78.3543 151.825C79.6379 152.467 80.9215 151.825 81.2418 150.542C81.5629 150.221 81.5629 149.9 81.5629 149.259V144.767C81.5629 143.804 80.6004 142.521 79.6379 141.879ZM113.646 41.7793C112.363 41.1379 111.079 41.7793 110.759 43.0629C110.438 43.384 110.438 43.7043 110.438 44.3465V48.8379C110.438 50.1215 111.4 51.4043 112.363 52.0465C137.388 61.0293 150.221 88.9418 140.917 113.646C136.104 127.121 125.517 137.388 112.363 142.2C111.079 142.842 110.438 143.804 110.438 145.409V149.9C110.438 151.184 111.079 152.146 112.363 152.467C112.684 152.467 113.325 152.467 113.646 152.146C144.125 142.521 160.809 110.117 151.184 79.6379C145.409 61.3504 131.292 47.5543 113.646 41.7793Z" fill="white"/>
</g>
</g>
<defs>
<linearGradient id="paint0_linear_856_37" x1="192" y1="-0.000770047" x2="-17.6528" y2="21.7357" gradientUnits="userSpaceOnUse">
<stop stop-color="#2D87E9"/>
<stop offset="1" stop-color="#13457C"/>
</linearGradient>
<linearGradient id="paint1_linear_856_37" x1="9.5997" y1="182.401" x2="198.287" y2="162.838" gradientUnits="userSpaceOnUse">
<stop stop-color="#2D87E9"/>
<stop offset="1" stop-color="#13457C"/>
</linearGradient>
<clipPath id="clip0_856_37">
<rect width="192" height="192" fill="white"/>
</clipPath>
<clipPath id="clip1_856_37">
<rect width="154" height="154" fill="white" transform="translate(19 19)"/>
</clipPath>
</defs>
</svg>
