<svg width="24" height="24" viewBox="0 0 24 24" fill="none" xmlns="http://www.w3.org/2000/svg">
<rect x="7.93835" y="3.96469" width="2.00882" height="2.00882" fill="black"/>
<rect x="5.96973" y="5.97351" width="2.00882" height="2.00882" fill="black"/>
<rect x="3.96082" y="7.98236" width="2.00882" height="2.00882" fill="black"/>
<rect x="3.96082" y="9.99115" width="2.00882" height="2.00882" fill="black"/>
<rect x="3.96082" y="12" width="2.00882" height="2.00882" fill="black"/>
<rect x="3.96082" y="14.0088" width="2.00882" height="2.00882" fill="black"/>
<rect x="5.96973" y="16.0176" width="2.00882" height="2.00882" fill="black"/>
<rect x="7.93835" y="1.95587" width="2.00882" height="2.00882" fill="white"/>
<rect x="5.92944" y="3.96469" width="2.00882" height="2.00882" fill="white"/>
<rect x="15.9736" y="3.96469" width="2.00882" height="2.00882" fill="white"/>
<rect x="3.96082" y="3.96469" width="2.00882" height="2.00882" fill="white"/>
<rect x="17.9824" y="3.96469" width="2.00882" height="2.00882" fill="white"/>
<rect x="3.96082" y="5.97351" width="2.00882" height="2.00882" fill="white"/>
<rect x="1.95203" y="7.98236" width="2.00882" height="2.00882" fill="white"/>
<rect x="1.95203" y="9.99115" width="2.00882" height="2.00882" fill="white"/>
<rect x="1.95203" y="12" width="2.00882" height="2.00882" fill="white"/>
<rect x="1.95203" y="14.0088" width="2.00882" height="2.00882" fill="white"/>
<rect x="3.96082" y="16.0176" width="2.00882" height="2.00882" fill="white"/>
<rect x="7.97852" y="5.97351" width="2.00882" height="2.00882" fill="#643B9F"/>
<rect x="7.97852" y="7.98236" width="2.00882" height="2.00882" fill="#1A0E39"/>
<rect x="5.96973" y="7.98236" width="2.00882" height="2.00882" fill="#643B9F"/>
<rect x="15.9736" y="7.98236" width="2.00882" height="2.00882" fill="#AC94F4"/>
<rect x="7.97852" y="9.99115" width="2.00882" height="2.00882" fill="#371F76"/>
<rect x="5.96973" y="9.99115" width="2.00882" height="2.00882" fill="#643B9F"/>
<rect x="15.9736" y="9.99115" width="2.00882" height="2.00882" fill="#643B9F"/>
<rect x="7.97852" y="12" width="2.00882" height="2.00882" fill="#371F76"/>
<rect x="5.96973" y="12" width="2.00882" height="2.00882" fill="#643B9F"/>
<rect x="15.9736" y="12" width="2.00882" height="2.00882" fill="#643B9F"/>
<rect x="7.97852" y="14.0088" width="2.00882" height="2.00882" fill="#643B9F"/>
<rect x="5.96973" y="14.0088" width="2.00882" height="2.00882" fill="#371F76"/>
<rect x="15.9736" y="14.0088" width="2.00882" height="2.00882" fill="black"/>
<rect x="7.97852" y="16.0176" width="2.00882" height="2.00882" fill="#371F76"/>
<rect x="9.94714" y="5.97351" width="2.00882" height="2.00882" fill="#AC94F4"/>
<rect x="9.94714" y="7.98236" width="2.00882" height="2.00882" fill="#371F76"/>
<rect x="9.94714" y="9.99115" width="2.00882" height="2.00882" fill="black"/>
<rect x="9.94714" y="12" width="2.00882" height="2.00882" fill="black"/>
<rect x="9.94714" y="14.0088" width="2.00882" height="2.00882" fill="#AC94F4"/>
<rect x="9.94714" y="16.0176" width="2.00882" height="2.00882" fill="#371F76"/>
<rect x="11.9559" y="5.97351" width="2.00882" height="2.00882" fill="#AC94F4"/>
<rect x="11.9559" y="7.98236" width="2.00882" height="2.00882" fill="#371F76"/>
<rect x="11.9559" y="9.99115" width="2.00882" height="2.00882" fill="black"/>
<rect x="11.9559" y="12" width="2.00882" height="2.00882" fill="black"/>
<rect x="11.9559" y="14.0088" width="2.00882" height="2.00882" fill="#AC94F4"/>
<rect x="11.9559" y="16.0176" width="2.00882" height="2.00882" fill="#371F76"/>
<rect x="13.9647" y="5.97351" width="2.00882" height="2.00882" fill="#AC94F4"/>
<rect x="13.9647" y="7.98236" width="2.00882" height="2.00882" fill="#643B9F"/>
<rect x="13.9647" y="9.99115" width="2.00882" height="2.00882" fill="#AC94F4"/>
<rect x="13.9647" y="12" width="2.00882" height="2.00882" fill="#AC94F4"/>
<rect x="13.9647" y="14.0088" width="2.00882" height="2.00882" fill="black"/>
<rect x="13.9647" y="16.0176" width="2.00882" height="2.00882" fill="black"/>
<rect x="17.9824" y="5.97351" width="2.00882" height="2.00882" fill="white"/>
<rect x="19.9912" y="7.98236" width="2.00882" height="2.00882" fill="white"/>
<rect x="19.9912" y="9.99115" width="2.00882" height="2.00882" fill="white"/>
<rect x="19.9912" y="12" width="2.00882" height="2.00882" fill="white"/>
<rect x="19.9912" y="14.0088" width="2.00882" height="2.00882" fill="white"/>
<rect x="17.9824" y="16.0176" width="2.00882" height="2.00882" fill="white"/>
<rect x="9.94714" y="3.96469" width="2.00882" height="2.00882" fill="black"/>
<rect x="9.94714" y="1.95587" width="2.00882" height="2.00882" fill="white"/>
<rect x="11.9559" y="3.96469" width="2.00882" height="2.00882" fill="black"/>
<rect x="11.9559" y="1.95587" width="2.00882" height="2.00882" fill="white"/>
<rect x="13.9647" y="3.96469" width="2.00882" height="2.00882" fill="black"/>
<rect x="15.9736" y="5.97351" width="2.00882" height="2.00882" fill="black"/>
<rect x="17.9824" y="7.98236" width="2.00882" height="2.00882" fill="black"/>
<rect x="17.9824" y="9.99115" width="2.00882" height="2.00882" fill="black"/>
<rect x="17.9824" y="12" width="2.00882" height="2.00882" fill="black"/>
<rect x="17.9824" y="14.0088" width="2.00882" height="2.00882" fill="black"/>
<rect x="15.9736" y="16.0176" width="2.00882" height="2.00882" fill="black"/>
<rect x="13.9647" y="1.95587" width="2.00882" height="2.00882" fill="white"/>
<rect x="7.93835" y="18.0265" width="2.00882" height="2.00882" fill="black"/>
<rect x="7.93835" y="20.0352" width="2.00882" height="2.00882" fill="white"/>
<rect x="5.92944" y="18.0265" width="2.00882" height="2.00882" fill="white"/>
<rect x="15.9736" y="18.0265" width="2.00882" height="2.00882" fill="white"/>
<rect x="3.96082" y="18.0265" width="2.00882" height="2.00882" fill="white"/>
<rect x="17.9824" y="18.0265" width="2.00882" height="2.00882" fill="white"/>
<rect x="9.94714" y="18.0265" width="2.00882" height="2.00882" fill="black"/>
<rect x="9.94714" y="20.0352" width="2.00882" height="2.00882" fill="white"/>
<rect x="11.9559" y="18.0265" width="2.00882" height="2.00882" fill="black"/>
<rect x="11.9559" y="20.0352" width="2.00882" height="2.00882" fill="white"/>
<rect x="13.9647" y="18.0265" width="2.00882" height="2.00882" fill="black"/>
<rect x="13.9647" y="20.0352" width="2.00882" height="2.00882" fill="white"/>
</svg>
