<svg width="24" height="24" viewBox="0 0 24 24" fill="none" xmlns="http://www.w3.org/2000/svg">
<mask id="mask0_1272_2827" style="mask-type:alpha" maskUnits="userSpaceOnUse" x="0" y="0" width="24" height="24">
<circle cx="12" cy="12" r="12" fill="white"/>
</mask>
<g mask="url(#mask0_1272_2827)">
<mask id="mask1_1272_2827" style="mask-type:alpha" maskUnits="userSpaceOnUse" x="0" y="0" width="24" height="24">
<circle cx="12" cy="12" r="12" fill="white"/>
</mask>
<g mask="url(#mask1_1272_2827)">
</g>
<g clip-path="url(#clip0_1272_2827)">
<rect width="24" height="24" fill="url(#paint0_radial_1272_2827)"/>
<path d="M12 2C6.47664 2 2 6.47718 2 12.0003C2 17.5235 6.47664 22 12 22C17.5234 22 22 17.5218 22 12.0003C22 6.4788 17.523 2 12 2ZM11.751 19.9839C7.33469 19.9839 3.75014 16.4224 3.71383 12.0152C3.6772 7.58862 7.27408 3.93764 11.7011 3.91203C12.5268 3.90622 13.3484 4.02757 14.1372 4.27181C13.575 4.12314 12.9958 4.04818 12.4143 4.04881C8.69876 4.04881 5.90904 6.50959 5.43091 9.97647C5.41924 10.0617 5.35765 11.0059 5.36154 11.0915C5.41016 12.3893 5.83027 13.8109 6.51457 14.8202C7.50844 16.2856 8.81999 17.2324 10.1526 17.5821C13.497 18.4595 15.9998 16.5747 16.828 14.2368C17.1386 13.3617 17.3143 11.6503 16.5146 10.3421C15.7547 9.10132 14.7664 8.3931 13.1618 8.3931C13.1274 8.3931 13.0927 8.3931 13.0587 8.39505C12.6128 8.40676 12.173 8.50185 11.7621 8.67542H11.7588C11.3363 8.88658 10.9767 9.20514 10.7161 9.59914C10.4556 9.99314 10.3032 10.4487 10.2744 10.9202C10.2455 11.3916 10.3411 11.8624 10.5517 12.2852C10.7622 12.7081 11.0803 13.0681 11.4739 13.3292C11.11 12.9503 10.9046 12.4467 10.8997 11.9214C10.8947 11.396 11.0905 10.8886 11.4471 10.5028C11.8037 10.1171 12.2942 9.88198 12.8184 9.84565C13.3425 9.80932 13.8607 9.97449 14.2672 10.3074C14.2672 10.3074 14.2672 10.3074 14.2691 10.3074C14.5104 10.5049 14.7039 10.7545 14.8351 11.0373C15.0895 11.4941 15.2226 12.0084 15.2218 12.5312V12.5513C15.2127 14.0747 14.1608 15.5774 11.8272 15.5887C10.3014 15.5962 8.76229 14.6164 7.96972 13.0884C7.62043 12.4137 7.43865 11.6648 7.43972 10.9051C7.43972 10.8659 7.43972 10.8267 7.43972 10.7874C7.48057 9.12109 8.16552 7.43498 10.0609 6.34688C11.0204 5.79586 12.211 5.57416 13.3903 5.53494C13.4616 5.53235 13.5328 5.53105 13.6039 5.53105C15.2115 5.53105 16.639 6.31706 17.5068 7.10307C17.8816 7.44276 18.3172 7.89459 18.5331 8.18307C19.4761 9.44717 19.6868 10.3606 19.8456 11.7718C19.8965 12.2256 19.8414 13.1549 19.7484 13.583C19.1908 17.4748 15.7979 19.9839 11.751 19.9839V19.9839Z" fill="white"/>
</g>
</g>
<defs>
<radialGradient id="paint0_radial_1272_2827" cx="0" cy="0" r="1" gradientUnits="userSpaceOnUse" gradientTransform="translate(20.5 20.5) rotate(-135.881) scale(22.9837)">
<stop stop-color="#FDCE20"/>
<stop offset="1" stop-color="#E825B0"/>
</radialGradient>
<clipPath id="clip0_1272_2827">
<rect width="24" height="24" fill="white"/>
</clipPath>
</defs>
</svg>
