<svg width="24" height="24" viewBox="0 0 24 24" fill="none" xmlns="http://www.w3.org/2000/svg">
<mask id="mask0" style="mask-type:alpha" maskUnits="userSpaceOnUse" x="6" y="3" width="12" height="17">
<path d="M6 3H18V20H6V3Z" fill="white"/>
</mask>
<g mask="url(#mask0)">
<path fill-rule="evenodd" clip-rule="evenodd" d="M15.2498 9.80764C14.8618 11.4714 12.4667 10.6262 11.6898 10.4189L12.375 7.47815C13.1519 7.68541 15.6539 8.07227 15.2499 9.80764H15.2498ZM14.8241 14.5532C14.3988 16.3823 11.5212 15.3936 10.5883 15.1457L11.344 11.9032C12.2769 12.1524 15.2686 12.6457 14.8242 14.5532H14.8241ZM17.9687 9.83416C18.2183 8.04784 16.9475 7.08763 15.2099 6.4471L15.7736 4.02739L14.3973 3.66036L13.8486 6.01637C13.4867 5.91979 13.1152 5.82877 12.7459 5.73858L13.2986 3.36703L11.9231 3L11.3591 5.41892C11.0597 5.34595 10.7656 5.27384 10.4803 5.19786L10.4819 5.19028L8.58397 4.68303L8.21782 6.25622C8.21782 6.25622 9.23895 6.50673 9.21742 6.52217C9.77475 6.67102 9.87554 7.06586 9.85879 7.37883L9.21668 10.1354L9.21431 10.1461L8.31427 14.0077C8.24616 14.1889 8.07328 14.4609 7.68363 14.3576C7.69743 14.379 6.68331 14.0904 6.68331 14.0904L6 15.7765L7.79104 16.2543C8.12423 16.3437 8.45074 16.4373 8.77229 16.5253L8.20278 18.9728L9.57746 19.3398L10.1415 16.9183C10.517 17.0274 10.8815 17.1281 11.2383 17.2229L10.6762 19.633L12.0526 20L12.622 17.5571C14.9689 18.0325 16.7336 17.8408 17.4764 15.569C18.0749 13.7399 17.4466 12.6849 16.2119 11.9969C17.1112 11.775 17.7885 11.142 17.9691 9.83436L17.9687 9.83404L17.9687 9.83416Z" fill="#F7931A"/>
</g>
</svg>
