<?xml version="1.0" standalone="no"?><!DOCTYPE svg PUBLIC "-//W3C//DTD SVG 1.1//EN" "http://www.w3.org/Graphics/SVG/1.1/DTD/svg11.dtd"><svg t="1773853253562" class="icon" viewBox="0 0 1024 1024" version="1.1" xmlns="http://www.w3.org/2000/svg" p-id="10029" width="64" height="64" xmlns:xlink="http://www.w3.org/1999/xlink"><path d="M512 512m-512 0a512 512 0 1 0 1024 0 512 512 0 1 0-1024 0Z" fill="#58BF00" p-id="10030"></path><path d="M800 722.56l-223.68-104.256v-231.04L800 307.936V722.56zM474.336 832L256 730.272V318.656l218.336 101.76V832z m320.32-538.976l-3.616 1.28-214.72 76.192-5.376 1.92-90.976 32.256-215.36-100.352 306.336-108.672 2.688-0.96 5.664-2.016 1.984-0.672 215.36 100.352-2.016 0.672z" fill="#FFFFFF" p-id="10031"></path></svg>