<svg width="512" height="512" viewBox="0 0 512 512" fill="none" xmlns="http://www.w3.org/2000/svg">
<rect width="512" height="512" rx="256" fill="white"/>
<rect width="512" height="512" rx="256" fill="url(#paint0_radial_909_49)"/>
<path d="M112.439 93.7457C152.008 58.6405 203.093 39.2919 255.99 39.3753C375.627 39.3753 472.606 136.354 472.606 255.99C472.676 300.264 459.116 343.487 433.766 379.786L375.129 255.99H429.282C429.283 221.535 419.012 187.861 399.782 159.271C380.552 130.68 353.235 108.472 321.322 95.482C289.409 82.4921 254.347 79.3105 220.617 86.3438C186.887 93.3771 156.019 110.306 131.956 134.968L112.461 93.7673L112.439 93.7457Z" fill="url(#paint1_radial_909_49)"/>
<path d="M112.439 93.7457C152.008 58.6405 203.093 39.2919 255.99 39.3753C375.627 39.3753 472.606 136.354 472.606 255.99C472.676 300.264 459.116 343.487 433.766 379.786L375.129 255.99H429.282C429.283 221.535 419.012 187.861 399.782 159.271C380.552 130.68 353.235 108.472 321.322 95.482C289.409 82.4921 254.347 79.3105 220.617 86.3438C186.887 93.3771 156.019 110.306 131.956 134.968L112.461 93.7673L112.439 93.7457Z" fill="black" fill-opacity="0.48"/>
<path d="M399.541 418.235C359.972 453.34 308.887 472.689 255.99 472.606C136.354 472.606 39.375 375.627 39.375 255.99C39.375 209.96 53.7366 167.287 78.2141 132.195L136.852 255.99H82.6981C82.6974 290.446 92.9682 324.12 112.198 352.71C131.429 381.3 158.745 403.509 190.659 416.499C222.572 429.489 257.633 432.67 291.363 425.637C325.094 418.604 355.962 401.675 380.024 377.013L399.52 418.213L399.541 418.235Z" fill="url(#paint2_radial_909_49)"/>
<path d="M399.541 418.235C359.972 453.34 308.887 472.689 255.99 472.606C136.354 472.606 39.375 375.627 39.375 255.99C39.375 209.96 53.7366 167.287 78.2141 132.195L136.852 255.99H82.6981C82.6974 290.446 92.9682 324.12 112.198 352.71C131.429 381.3 158.745 403.509 190.659 416.499C222.572 429.489 257.633 432.67 291.363 425.637C325.094 418.604 355.962 401.675 380.024 377.013L399.52 418.213L399.541 418.235Z" fill="black" fill-opacity="0.48"/>
<path d="M349.529 219.651C349.065 237.537 342.358 254.649 330.643 267.84L239.401 361.98C234.346 366.641 227.805 369.219 221.025 369.221C219.186 369.184 217.352 369.008 215.538 368.694L210.178 366.983C204.447 364.93 198.861 362.466 193.462 359.61L192.313 358.951C191.82 358.57 191.423 358.072 191.157 357.499C190.89 356.926 190.761 356.295 190.782 355.66C190.769 354.763 191.037 353.885 191.547 353.158L293.891 247.432C294.388 246.874 294.817 246.255 295.167 245.589C295.804 244.328 296.317 243.005 296.698 241.639C296.889 240.773 297.017 239.892 297.081 239.006C297.194 238.443 297.237 237.868 297.209 237.294C297.209 232.615 295.407 228.128 292.2 224.819C288.993 221.51 284.644 219.651 280.109 219.651L198.056 219.652L174.448 244.01C173.937 244.787 173.287 245.458 172.534 245.985C171.092 246.962 169.333 247.308 167.643 246.948C165.954 246.587 164.473 245.549 163.524 244.063C162.809 242.956 162.436 241.653 162.452 240.323V208.856C162.717 201.462 165.751 194.463 170.915 189.331C176.08 184.198 183.749 181.332 190.92 181.337L210.944 181.337C210.944 181.337 216.049 175.544 218.09 173.438L219.575 171.771C223.872 166.938 228.944 161.234 234.424 157.111C246.774 147.739 261.716 142.708 277.046 142.76C286.125 142.772 295.123 144.512 303.589 147.895L307.035 149.343C313.163 152.253 318.874 156.019 324.007 160.535L325.028 161.456H325.155C332.815 168.481 338.946 177.099 343.147 186.743C347.348 196.387 349.523 206.84 349.529 217.413V219.651Z" fill="url(#paint3_radial_909_49)"/>
<path d="M349.529 219.651C349.065 237.537 342.358 254.649 330.643 267.84L239.401 361.98C234.346 366.641 227.805 369.219 221.025 369.221C219.186 369.184 217.352 369.008 215.538 368.694L210.178 366.983C204.447 364.93 198.861 362.466 193.462 359.61L192.313 358.951C191.82 358.57 191.423 358.072 191.157 357.499C190.89 356.926 190.761 356.295 190.782 355.66C190.769 354.763 191.037 353.885 191.547 353.158L293.891 247.432C294.388 246.874 294.817 246.255 295.167 245.589C295.804 244.328 296.317 243.005 296.698 241.639C296.889 240.773 297.017 239.892 297.081 239.006C297.194 238.443 297.237 237.868 297.209 237.294C297.209 232.615 295.407 228.128 292.2 224.819C288.993 221.51 284.644 219.651 280.109 219.651L198.056 219.652L174.448 244.01C173.937 244.787 173.287 245.458 172.534 245.985C171.092 246.962 169.333 247.308 167.643 246.948C165.954 246.587 164.473 245.549 163.524 244.063C162.809 242.956 162.436 241.653 162.452 240.323V208.856C162.717 201.462 165.751 194.463 170.915 189.331C176.08 184.198 183.749 181.332 190.92 181.337L210.944 181.337C210.944 181.337 216.049 175.544 218.09 173.438L219.575 171.771C223.872 166.938 228.944 161.234 234.424 157.111C246.774 147.739 261.716 142.708 277.046 142.76C286.125 142.772 295.123 144.512 303.589 147.895L307.035 149.343C313.163 152.253 318.874 156.019 324.007 160.535L325.028 161.456H325.155C332.815 168.481 338.946 177.099 343.147 186.743C347.348 196.387 349.523 206.84 349.529 217.413V219.651Z" fill="black" fill-opacity="0.48"/>
<path d="M397.292 417.78L397.867 418.996L398.003 419.284L398.165 419.445C358.792 453.785 308.276 472.688 255.99 472.606C136.354 472.606 39.375 375.627 39.375 255.99C39.375 210.717 53.2679 168.692 77.0141 133.933L77.9222 135.85M397.292 417.78C397.638 417.477 397.983 417.173 398.328 416.867L399.517 418.207L380.858 378.775C380.403 379.237 379.947 379.697 379.487 380.154M397.292 417.78C358.204 452.01 307.981 470.859 255.993 470.777H255.99C137.364 470.777 41.2036 374.617 41.2036 255.99C41.2036 211.481 54.744 170.142 77.9222 135.85M397.292 417.78L379.487 380.154M379.487 380.154L378.657 378.399C354.798 402.309 324.458 418.736 291.363 425.637C257.633 432.67 222.572 429.489 190.659 416.499C158.745 403.509 131.429 381.3 112.198 352.71C93.3086 324.626 83.0638 291.636 82.7077 257.819H82.6981V255.997C82.6981 255.995 82.6981 255.993 82.6981 255.99H134.829L133.962 254.162M379.487 380.154C355.447 404.065 324.967 420.498 291.737 427.427C257.65 434.535 222.219 431.319 189.969 418.192C157.719 405.065 130.114 382.623 110.681 353.731C91.248 324.839 80.8688 290.81 80.8695 255.99L80.8695 254.162H82.6981H133.962M133.962 254.162H135.986L79.117 134.101C78.716 134.682 78.3177 135.265 77.9222 135.85M133.962 254.162L77.9222 135.85M210.944 181.337L190.92 181.337C183.749 181.332 176.08 184.198 170.915 189.331C165.751 194.463 162.717 201.462 162.452 208.856M210.944 181.337L162.452 208.856M210.944 181.337L212.316 182.546L212.316 182.546L212.317 182.545L212.32 182.542L212.33 182.53L212.373 182.481L212.538 182.295C212.681 182.133 212.888 181.899 213.142 181.612C213.651 181.037 214.351 180.25 215.114 179.397C216.65 177.68 218.412 175.733 219.403 174.71L219.43 174.683L219.456 174.654L220.94 172.988L220.941 172.986C225.265 168.124 230.216 162.566 235.524 158.573L235.53 158.568C247.564 149.435 262.116 144.538 277.04 144.589H277.044C285.884 144.6 294.648 146.294 302.896 149.587L302.881 149.581L303.589 147.895M210.944 181.337L299.037 237.252C299.066 237.92 299.019 238.591 298.897 239.248C298.824 240.185 298.686 241.115 298.484 242.032L298.473 242.082L298.459 242.131C298.046 243.611 297.49 245.046 296.799 246.414L296.792 246.427L296.785 246.44C296.366 247.237 295.853 247.979 295.256 248.649L295.231 248.677L295.205 248.704L192.976 354.311C192.733 354.699 192.603 355.159 192.61 355.634L192.611 355.676L192.609 355.718C192.598 356.069 192.669 356.416 192.815 356.728C192.944 357.006 193.128 357.247 193.349 357.438L194.344 358.008C199.649 360.812 205.136 363.232 210.765 365.251L215.973 366.914C217.65 367.197 219.344 367.357 221.044 367.393C227.334 367.386 233.412 364.999 238.125 360.669L329.301 266.597C340.705 253.742 347.242 237.067 347.7 219.627M210.944 181.337C210.944 181.337 216.049 175.544 218.09 173.438L219.575 171.771C223.872 166.938 228.944 161.234 234.424 157.111C246.774 147.739 261.716 142.708 277.046 142.76C286.125 142.772 295.123 144.512 303.589 147.895M210.944 181.337L349.529 219.651M162.452 208.856L164.28 208.921C164.28 208.91 164.281 208.9 164.281 208.889V208.856H162.452ZM303.589 147.895L302.911 149.593L306.288 151.013M303.589 147.895L307.035 149.343M306.288 151.013C312.244 153.845 317.797 157.508 322.79 161.9L322.781 161.892L324.007 160.535M306.288 151.013C306.275 151.007 306.263 151.001 306.25 150.995L307.035 149.343M306.288 151.013L306.326 151.029L307.035 149.343M324.007 160.535L322.799 161.907L323.802 162.814L324.324 163.285H324.439M324.007 160.535L325.028 161.456H325.155M324.007 160.535C318.874 156.019 313.163 152.253 307.035 149.343M324.439 163.285C331.665 170.046 337.466 178.28 341.47 187.473C345.571 196.886 347.694 207.09 347.7 217.414M324.439 163.285C324.266 163.124 324.093 162.963 323.919 162.804L325.028 161.595L325.155 161.456M324.439 163.285H325.028H325.155V161.456M347.7 217.414V219.627M347.7 217.414V217.413H349.529M347.7 217.414L349.529 217.413M347.7 219.627V219.651H349.529M347.7 219.627C347.701 219.62 347.701 219.612 347.701 219.604L349.529 219.651M349.529 219.651V217.413M349.529 217.413C349.523 206.84 347.348 196.387 343.147 186.743C338.946 177.099 332.815 168.481 325.155 161.456M255.987 41.2038H255.99C374.617 41.2038 470.777 137.364 470.777 255.99V255.993C470.845 298.837 458.04 340.687 434.059 376.132L378.018 257.819H429.282H431.111L431.111 255.99C431.112 221.171 420.733 187.142 401.299 158.25C381.866 129.358 354.261 106.915 322.011 93.7883C289.761 80.6614 254.33 77.4462 220.244 84.5537C187.014 91.4826 156.533 107.915 132.493 131.827L114.689 94.2004C153.776 59.9705 203.999 41.1219 255.987 41.2038ZM171.497 244.479C171.493 244.481 171.489 244.484 171.485 244.487L172.534 245.985L171.508 244.471C171.504 244.474 171.5 244.476 171.497 244.479Z" stroke="url(#paint4_radial_909_49)" stroke-opacity="0.64" stroke-width="3.65714"/>
<defs>
<radialGradient id="paint0_radial_909_49" cx="0" cy="0" r="1" gradientUnits="userSpaceOnUse" gradientTransform="translate(-153.6 704) rotate(-44.3839) scale(841.789)">
<stop stop-color="#FFEDC7"/>
<stop offset="0.29324" stop-color="#EBB03E"/>
<stop offset="0.65662" stop-color="#F8DB9E"/>
<stop offset="0.802043" stop-color="#FBCC69"/>
<stop offset="1" stop-color="#FBCC69"/>
</radialGradient>
<radialGradient id="paint1_radial_909_49" cx="0" cy="0" r="1" gradientUnits="userSpaceOnUse" gradientTransform="translate(-90.5942 635.067) rotate(-44.3839) scale(712.283)">
<stop stop-color="#FFEDC7"/>
<stop offset="0.29324" stop-color="#EBB03E"/>
<stop offset="0.65662" stop-color="#F8DB9E"/>
<stop offset="0.802043" stop-color="#FBCC69"/>
<stop offset="1" stop-color="#FBCC69"/>
</radialGradient>
<radialGradient id="paint2_radial_909_49" cx="0" cy="0" r="1" gradientUnits="userSpaceOnUse" gradientTransform="translate(-90.5942 635.067) rotate(-44.3839) scale(712.283)">
<stop stop-color="#FFEDC7"/>
<stop offset="0.29324" stop-color="#EBB03E"/>
<stop offset="0.65662" stop-color="#F8DB9E"/>
<stop offset="0.802043" stop-color="#FBCC69"/>
<stop offset="1" stop-color="#FBCC69"/>
</radialGradient>
<radialGradient id="paint3_radial_909_49" cx="0" cy="0" r="1" gradientUnits="userSpaceOnUse" gradientTransform="translate(-90.5942 635.067) rotate(-44.3839) scale(712.283)">
<stop stop-color="#FFEDC7"/>
<stop offset="0.29324" stop-color="#EBB03E"/>
<stop offset="0.65662" stop-color="#F8DB9E"/>
<stop offset="0.802043" stop-color="#FBCC69"/>
<stop offset="1" stop-color="#FBCC69"/>
</radialGradient>
<radialGradient id="paint4_radial_909_49" cx="0" cy="0" r="1" gradientUnits="userSpaceOnUse" gradientTransform="translate(-90.5942 635.067) rotate(-44.3839) scale(712.283)">
<stop stop-color="#FFEDC7"/>
<stop offset="0.29324" stop-color="#EBB03E"/>
<stop offset="0.65662" stop-color="#F8DB9E"/>
<stop offset="0.802043" stop-color="#FBCC69"/>
<stop offset="1" stop-color="#FBCC69"/>
</radialGradient>
</defs>
</svg>
