<svg width="192" height="192" viewBox="0 0 192 192" fill="none" xmlns="http://www.w3.org/2000/svg">
<path d="M192 96C192 42.9797 149.02 0 95.998 0C42.98 0 0 42.9797 0 96C0 149.017 42.98 192 95.998 192C149.02 192 192 149.017 192 96Z" fill="url(#paint0_linear_865_112)"/>
<path d="M9.59961 96.0006C9.59961 143.719 48.2836 182.401 96.0016 182.401C143.72 182.401 182.4 143.719 182.4 96.0006C182.4 48.2821 143.72 9.60059 96.0016 9.60059C48.2836 9.60059 9.59961 48.2821 9.59961 96.0006Z" fill="url(#paint1_linear_865_112)"/>
<path d="M172.799 96.0002C172.799 53.5839 138.415 19.2002 95.9982 19.2002C53.5832 19.2002 19.1992 53.5839 19.1992 96.0002C19.1992 138.414 53.5832 172.801 95.9982 172.801C138.415 172.801 172.799 138.414 172.799 96.0002Z" fill="url(#paint2_linear_865_112)"/>
<path d="M172.799 96.0002C172.799 53.5839 138.415 19.2002 95.9982 19.2002C53.5832 19.2002 19.1992 53.5839 19.1992 96.0002C19.1992 138.414 53.5832 172.801 95.9982 172.801C138.415 172.801 172.799 138.414 172.799 96.0002Z" fill="white" fill-opacity="0.64"/>
<g clip-path="url(#clip0_865_112)">
<path d="M96 165C134.108 165 165 134.108 165 96C165 57.8924 134.108 27 96 27C57.8924 27 27 57.8924 27 96C27 134.108 57.8924 165 96 165Z" fill="url(#paint3_linear_865_112)"/>
<path fill-rule="evenodd" clip-rule="evenodd" d="M55.3477 91.6878C55.3477 69.2365 73.548 51.0361 95.9993 51.0361C118.451 51.0361 136.651 69.2365 136.651 91.6878V107.952C136.651 110.754 134.379 113.025 131.577 113.025C128.775 113.025 126.504 110.754 126.504 107.952V91.6878C126.504 74.8406 112.847 61.1832 95.9993 61.1832C79.1521 61.1832 65.4947 74.8406 65.4947 91.6878V107.952C65.4947 110.754 63.2232 113.025 60.4212 113.025C57.6192 113.025 55.3477 110.754 55.3477 107.952V91.6878ZM75.6781 91.688C75.6781 80.4647 84.7763 71.3666 95.9995 71.3666C107.223 71.3666 116.321 80.4645 116.321 91.6876V112.018C116.321 117.637 120.876 122.192 126.495 122.192H131.577C134.379 122.192 136.651 124.464 136.651 127.266C136.651 130.068 134.379 132.339 131.577 132.339H126.495C115.272 132.339 106.173 123.241 106.173 112.018V91.6876C106.173 86.0686 101.619 81.5136 95.9995 81.5136C90.3803 81.5136 85.8251 86.0688 85.8251 91.688V112.018C85.8251 123.241 76.7269 132.339 65.5037 132.339H60.4212C57.6192 132.339 55.3477 130.068 55.3477 127.266C55.3477 124.464 57.6192 122.192 60.4212 122.192H65.5037C71.1229 122.192 75.6781 117.637 75.6781 112.018V91.688Z" fill="white"/>
</g>
<defs>
<linearGradient id="paint0_linear_865_112" x1="192" y1="-0.000766657" x2="-17.653" y2="21.7356" gradientUnits="userSpaceOnUse">
<stop stop-color="#6B30F7"/>
<stop offset="1" stop-color="#BC3ACE"/>
</linearGradient>
<linearGradient id="paint1_linear_865_112" x1="9.59961" y1="182.401" x2="198.288" y2="162.839" gradientUnits="userSpaceOnUse">
<stop stop-color="#6B30F7"/>
<stop offset="1" stop-color="#BC3ACE"/>
</linearGradient>
<linearGradient id="paint2_linear_865_112" x1="172.799" y1="19.1996" x2="5.07722" y2="36.5887" gradientUnits="userSpaceOnUse">
<stop stop-color="#DC42C9"/>
<stop offset="1" stop-color="#952D88"/>
</linearGradient>
<linearGradient id="paint3_linear_865_112" x1="35.1176" y1="42.2206" x2="153.838" y2="148.765" gradientUnits="userSpaceOnUse">
<stop stop-color="#C63BC9"/>
<stop offset="1" stop-color="#642FFA"/>
</linearGradient>
<clipPath id="clip0_865_112">
<rect width="138" height="138" fill="white" transform="translate(27 27)"/>
</clipPath>
</defs>
</svg>
