<svg width="24" height="24" viewBox="0 0 24 24" fill="none" xmlns="http://www.w3.org/2000/svg">
<path d="M6.57582 12.2347L6.5845 15.4199L9.29031 17.0125V18.8773L5.00097 16.361V11.3033L6.57582 12.2347ZM6.57582 9.04951V10.9056L5 9.97322V8.11712L6.57582 7.18472L8.15935 8.11712L6.57582 9.04951ZM10.4203 8.11712L11.9961 7.18472L13.5797 8.11712L11.9961 9.04951L10.4203 8.11712Z" fill="#F0B90B"/>
<path d="M7.7146 14.7597V12.8949L9.29042 13.8273V15.6834L7.7146 14.7597ZM10.4204 17.6804L11.9962 18.6128L13.5798 17.6804V19.5365L11.9962 20.4689L10.4204 19.5365V17.6804ZM15.8398 8.11712L17.4156 7.18472L18.9991 8.11712V9.97322L17.4156 10.9056V9.04951L15.8398 8.11712ZM17.4156 15.4199L17.4243 12.2347L19.0001 11.3023V16.36L14.7107 18.8763V17.0116L17.4156 15.4199Z" fill="#F0B90B"/>
<path d="M16.2859 14.7606L14.7097 15.6843V13.8282L16.2859 12.8958V14.7606Z" fill="#F0B90B"/>
<path d="M16.2856 9.70923L16.2943 11.574L13.5807 13.1666V16.3595L12.0049 17.2833L10.4291 16.3595V13.1666L7.71556 11.574V9.70923L9.29814 8.77684L11.9953 10.3772L14.7088 8.77684L16.2923 9.70923H16.2856ZM7.7146 6.525L11.9962 4L16.2856 6.525L14.7098 7.45739L11.9962 5.85707L9.29042 7.45739L7.7146 6.525Z" fill="#F0B90B"/>
</svg>
