<svg width="24" height="24" viewBox="0 0 24 24" fill="none" xmlns="http://www.w3.org/2000/svg">
<rect width="24" height="24" rx="12" fill="white"/>
<path fill-rule="evenodd" clip-rule="evenodd" d="M11.9999 22.1538C17.6077 22.1538 22.1538 17.6078 22.1538 12C22.1538 6.39216 17.6077 1.84613 11.9999 1.84613C6.3921 1.84613 1.84607 6.39216 1.84607 12C1.84607 17.6078 6.3921 22.1538 11.9999 22.1538ZM11.6055 5.55454V3.69239H13.0991V5.58195C13.6302 5.65493 14.1126 5.79924 14.5463 6.01488C15.2019 6.34084 15.7091 6.81232 16.0678 7.42933C16.4327 8.04051 16.6151 8.77974 16.6151 9.64704H13.8227C13.8227 8.96601 13.6743 8.46251 13.3774 8.13655C13.0805 7.80476 12.6909 7.63887 12.2085 7.63887C11.856 7.63887 11.5684 7.7029 11.3457 7.83096C11.1231 7.95901 10.9592 8.13364 10.854 8.35483C10.7489 8.57602 10.6963 8.8234 10.6963 9.09698C10.6963 9.37637 10.752 9.62084 10.8633 9.83039C10.9746 10.0341 11.1664 10.2233 11.4385 10.3979C11.7106 10.5725 12.0848 10.7501 12.561 10.9305C13.3589 11.2332 14.0608 11.5563 14.6669 11.8997C15.2792 12.2431 15.7555 12.6622 16.0956 13.157C16.442 13.6517 16.6151 14.2804 16.6151 15.0429C16.6151 15.7996 16.4265 16.4457 16.0492 16.9812C15.672 17.5109 15.1493 17.9154 14.4814 18.1948C14.0109 18.3875 13.4852 18.5124 12.9043 18.5693V20.3078H11.4107V18.5671C11.0839 18.5329 10.7592 18.4757 10.4365 18.3957C9.87373 18.2501 9.3604 18.0144 8.89654 17.6884C8.43887 17.3625 8.07087 16.9317 7.79256 16.3962C7.52043 15.8549 7.38436 15.1884 7.38436 14.3968H10.1861C10.1861 14.7984 10.2417 15.136 10.3531 15.4096C10.4644 15.6774 10.6128 15.8927 10.7984 16.0557C10.9839 16.2129 11.1911 16.3264 11.4199 16.3962C11.6549 16.4602 11.8962 16.4923 12.1435 16.4923C12.5146 16.4923 12.8239 16.4311 13.0713 16.3089C13.3187 16.1867 13.5011 16.0179 13.6186 15.8025C13.7423 15.5813 13.8042 15.3339 13.8042 15.0604C13.8042 14.7402 13.7423 14.4725 13.6186 14.2571C13.5011 14.0359 13.3094 13.8409 13.0434 13.6721C12.7775 13.4975 12.4188 13.3316 11.9673 13.1744C11.1571 12.8776 10.4458 12.5632 9.83353 12.2315C9.22124 11.8939 8.74501 11.4777 8.40485 10.9829C8.06469 10.4881 7.89461 9.85659 7.89461 9.08824C7.89461 8.36065 8.07706 7.73201 8.44196 7.20232C8.80686 6.6668 9.31711 6.25353 9.97269 5.96249C10.4605 5.74595 11.0047 5.60997 11.6055 5.55454Z" fill="#D9D9D9"/>
<path fill-rule="evenodd" clip-rule="evenodd" d="M11.9999 22.1538C17.6077 22.1538 22.1538 17.6078 22.1538 12C22.1538 6.39216 17.6077 1.84613 11.9999 1.84613C6.3921 1.84613 1.84607 6.39216 1.84607 12C1.84607 17.6078 6.3921 22.1538 11.9999 22.1538ZM11.6055 5.55454V3.69239H13.0991V5.58195C13.6302 5.65493 14.1126 5.79924 14.5463 6.01488C15.2019 6.34084 15.7091 6.81232 16.0678 7.42933C16.4327 8.04051 16.6151 8.77974 16.6151 9.64704H13.8227C13.8227 8.96601 13.6743 8.46251 13.3774 8.13655C13.0805 7.80476 12.6909 7.63887 12.2085 7.63887C11.856 7.63887 11.5684 7.7029 11.3457 7.83096C11.1231 7.95901 10.9592 8.13364 10.854 8.35483C10.7489 8.57602 10.6963 8.8234 10.6963 9.09698C10.6963 9.37637 10.752 9.62084 10.8633 9.83039C10.9746 10.0341 11.1664 10.2233 11.4385 10.3979C11.7106 10.5725 12.0848 10.7501 12.561 10.9305C13.3589 11.2332 14.0608 11.5563 14.6669 11.8997C15.2792 12.2431 15.7555 12.6622 16.0956 13.157C16.442 13.6517 16.6151 14.2804 16.6151 15.0429C16.6151 15.7996 16.4265 16.4457 16.0492 16.9812C15.672 17.5109 15.1493 17.9154 14.4814 18.1948C14.0109 18.3875 13.4852 18.5124 12.9043 18.5693V20.3078H11.4107V18.5671C11.0839 18.5329 10.7592 18.4757 10.4365 18.3957C9.87373 18.2501 9.3604 18.0144 8.89654 17.6884C8.43887 17.3625 8.07087 16.9317 7.79256 16.3962C7.52043 15.8549 7.38436 15.1884 7.38436 14.3968H10.1861C10.1861 14.7984 10.2417 15.136 10.3531 15.4096C10.4644 15.6774 10.6128 15.8927 10.7984 16.0557C10.9839 16.2129 11.1911 16.3264 11.4199 16.3962C11.6549 16.4602 11.8962 16.4923 12.1435 16.4923C12.5146 16.4923 12.8239 16.4311 13.0713 16.3089C13.3187 16.1867 13.5011 16.0179 13.6186 15.8025C13.7423 15.5813 13.8042 15.3339 13.8042 15.0604C13.8042 14.7402 13.7423 14.4725 13.6186 14.2571C13.5011 14.0359 13.3094 13.8409 13.0434 13.6721C12.7775 13.4975 12.4188 13.3316 11.9673 13.1744C11.1571 12.8776 10.4458 12.5632 9.83353 12.2315C9.22124 11.8939 8.74501 11.4777 8.40485 10.9829C8.06469 10.4881 7.89461 9.85659 7.89461 9.08824C7.89461 8.36065 8.07706 7.73201 8.44196 7.20232C8.80686 6.6668 9.31711 6.25353 9.97269 5.96249C10.4605 5.74595 11.0047 5.60997 11.6055 5.55454Z" fill="url(#paint0_linear_166_2853)"/>
<defs>
<linearGradient id="paint0_linear_166_2853" x1="3.69244" y1="12" x2="20.3076" y2="12" gradientUnits="userSpaceOnUse">
<stop stop-color="#E96161"/>
<stop offset="0.2" stop-color="#E65B76"/>
<stop offset="0.61" stop-color="#DF4AAC"/>
<stop offset="1" stop-color="#D739E6"/>
</linearGradient>
</defs>
</svg>
